HIERARCHY
ROOT Hips
{
	OFFSET 0.00000 0.00000 0.00000
	CHANNELS 6 Xposition Yposition Zposition Zrotation Yrotation Xrotation 
	JOINT LHipJoint
	{
		OFFSET 0 0 0
		CHANNELS 3 Zrotation Yrotation Xrotation
		JOINT LeftHip
		{
			OFFSET 1.64549 -1.70879 0.84566
			CHANNELS 3 Zrotation Yrotation Xrotation
			JOINT LeftKnee
			{
				OFFSET 2.24963 -6.18082 0.00000
				CHANNELS 3 Zrotation Yrotation Xrotation
				JOINT LeftAnkle
				{
					OFFSET 2.71775 -7.46697 0.00000
					CHANNELS 3 Zrotation Yrotation Xrotation
					JOINT LeftToe
					{
						OFFSET 0.18768 -0.51564 2.24737
						CHANNELS 3 Zrotation Yrotation Xrotation
						End Site
						{
							OFFSET 0.00000 -0.00000 1.15935
						}
					}
				}
			}
		}
	}
	JOINT RHipJoint
	{
		OFFSET 0 0 0
		CHANNELS 3 Zrotation Yrotation Xrotation
		JOINT RightHip
		{
			OFFSET -1.58830 -1.70879 0.84566
			CHANNELS 3 Zrotation Yrotation Xrotation
			JOINT RightKnee
			{
				OFFSET -2.25006 -6.18201 0.00000
				CHANNELS 3 Zrotation Yrotation Xrotation
				JOINT RightAnkle
				{
					OFFSET -2.72829 -7.49593 0.00000
					CHANNELS 3 Zrotation Yrotation Xrotation
					JOINT RightToe
					{
						OFFSET -0.21541 -0.59185 2.10643
						CHANNELS 3 Zrotation Yrotation Xrotation
						End Site
						{
							OFFSET -0.00000 -0.00000 1.09838
						}
					}
				}
			}
		}
	}
	JOINT lowerback
	{
		OFFSET 0 0 0
		CHANNELS 3 Zrotation Yrotation Xrotation
		JOINT Chest
		{
			OFFSET 0.03142 2.10496 -0.11038
			CHANNELS 3 Zrotation Yrotation Xrotation
			JOINT Chest2
			{
				OFFSET -0.01863 2.10897 -0.06956
				CHANNELS 3 Zrotation Yrotation Xrotation
				JOINT lowerneck
				{
					OFFSET 0 0 0
					CHANNELS 3 Zrotation Yrotation Xrotation
					JOINT Neck
					{
						OFFSET -0.02267 1.73238 0.00451
						CHANNELS 3 Zrotation Yrotation Xrotation
						JOINT Head
						{
							OFFSET -0.05808 1.54724 -0.61749
							CHANNELS 3 Zrotation Yrotation Xrotation
							End Site
							{
								OFFSET -0.01396 1.71468 -0.21082
							}
						}
					}
				}
				JOINT LeftCollar
				{
					OFFSET 0 0 0
					CHANNELS 3 Zrotation Yrotation Xrotation
					JOINT LeftShoulder
					{
						OFFSET 3.44898 0.50298 0.21920
CHANNELS 3 Zrotation Xrotation Yrotation
						JOINT LeftElbow
						{
OFFSET 0 -5.419170 -0.000000
CHANNELS 3 Zrotation Xrotation Yrotation
							JOINT LeftWrist
							{
OFFSET 0 -2.443730 0.000000
CHANNELS 3 Zrotation Xrotation Yrotation
								JOINT lhand
								{
									OFFSET 0 0 0
CHANNELS 3 Zrotation Xrotation Yrotation
									JOINT LFingers
									{
OFFSET 0 -0.727500 0.000000
CHANNELS 3 Zrotation Xrotation Yrotation
										End Site
										{
OFFSET 0 -0.586530 0.000000
										}
									}
								}
								JOINT LThumb
								{
OFFSET 0 0.000000 0.000000
CHANNELS 3 Zrotation Xrotation Yrotation
									End Site
									{
OFFSET 0 -0.595490 0.595490
									}
								}
							}
						}
					}
				}
				JOINT RightCollar
				{
					OFFSET 0 0 0
					CHANNELS 3 Zrotation Yrotation Xrotation
					JOINT RightShoulder
					{
						OFFSET -3.23015 0.55830 0.31051
CHANNELS 3 Zrotation Xrotation Yrotation
						JOINT RightElbow
						{
OFFSET 0 -5.589760 0.000140
CHANNELS 3 Zrotation Xrotation Yrotation
							JOINT RightWrist
							{
OFFSET 0 -2.480600 0.000000
CHANNELS 3 Zrotation Xrotation Yrotation
								JOINT rhand
								{
									OFFSET 0 0 0
CHANNELS 3 Zrotation Xrotation Yrotation
									JOINT RFingers
									{
OFFSET 0 -0.816010 0.000000
CHANNELS 3 Zrotation Xrotation Yrotation
										End Site
										{
OFFSET 0 -0.657890 0.000000
										}
									}
								}
								JOINT RThumb
								{
OFFSET 0 0.000000 0.000000
CHANNELS 3 Zrotation Xrotation Yrotation
									End Site
									{
OFFSET 0 -0.667930 0.667930
									}
								}
							}
						}
					}
				}
			}
		}
	}
}
MOTION
Frames: 10
Frame Time: 0.008333333333333333
0.040200 16.432200 -9.632400 -0.099000 -31.333900 26.481200 0.000000 0.000000 0.000000 -29.419700 -9.840100 -46.371900 4.154000 12.362600 37.027000 4.296800 13.445100 -45.177600 0.999900 6.363400 17.842600 0.000000 0.000000 0.000000 27.440400 -3.068400 -25.759000 -6.318800 -14.730300 46.248100 0.847900 -35.522300 21.274500 -0.466900 -4.382700 12.156000 -5.981100 1.891500 -16.433000 -0.495000 3.102500 -10.135400 3.278000 1.758300 -1.944700 2.948500 3.672500 -12.591100 2.032900 3.677200 34.082300 0.828700 2.171000 13.650300 0.000000 -0.000000 0.000000 17.773600 20.214700 -71.096200 20.084900 -30.744500 5.574700 -26.490500 -30.019200 -18.775700 0.000000 0.000000 0.000000 -7.125000 0.000000 0.000000 -47.303700 43.307100 -2.640500 0.000000 -0.000000 0.000000 -14.590300 24.173800 65.352300 -14.368200 -23.258600 -2.972000 25.653000 -28.013300 -3.426300 0.000000 0.000000 0.000000 7.125000 0.000000 -0.000000 36.403700 24.645800 22.744100
0.043398 16.434588 -9.633977 0.174839 -31.413031 26.221925 0.000000 0.000000 0.000000 -29.736551 -9.802675 -46.144830 4.120267 12.318751 36.869016 4.212329 13.827333 -45.050539 0.941582 6.180197 17.308257 0.000000 0.000000 0.000000 27.184798 -3.026816 -25.565664 -6.336568 -14.746778 46.318008 1.682227 -36.770165 18.262970 -0.963350 -6.210936 17.410328 -6.209215 1.854978 -16.187530 -0.550467 3.075756 -10.026990 3.335604 1.753321 -1.965297 3.071592 3.709198 -12.442664 1.912026 3.747887 33.838024 0.761544 2.201752 13.517305 0.000000 0.000000 0.000000 18.286613 19.939438 -73.111090 20.409249 -31.131916 5.741545 -25.355684 -29.969833 -18.415636 0.000000 0.000000 0.000000 -7.125000 0.000000 0.000000 -46.320796 43.192721 -2.723117 0.000000 0.000000 0.000000 -14.899147 24.172782 66.379791 -14.795157 -23.859187 -3.143089 25.285720 -28.248748 -3.950400 0.000000 0.000000 0.000000 7.125000 0.000000 0.000000 36.048052 24.236022 22.852678
0.041564 16.437901 -9.647413 -0.234199 -32.372068 26.960527 0.000000 0.000000 0.000000 -29.405351 -9.670130 -47.007774 4.134343 12.337085 36.935146 4.273356 14.044961 -45.423564 0.956305 6.226959 17.444425 0.000000 0.000000 0.000000 27.134492 -1.832602 -25.687324 -6.344722 -14.754277 46.350059 2.393891 -37.731551 15.600730 -1.529892 -7.794395 22.098830 -6.314936 2.083496 -16.556960 -0.487071 3.407339 -10.082440 3.520646 1.923946 -1.881805 3.137264 3.787332 -12.670868 1.862608 3.855092 33.752409 0.750874 2.250376 13.533934 0.000000 0.000000 0.000000 18.580342 19.641561 -74.336514 20.708005 -31.485828 5.896706 -25.332645 -29.877530 -18.207578 0.000000 0.000000 0.000000 -7.125000 0.000000 0.000000 -46.171272 43.032232 -2.954607 0.000000 0.000000 0.000000 -15.386004 24.235050 67.575327 -15.402627 -24.703183 -3.392887 24.782725 -28.818842 -3.768883 0.000000 0.000000 0.000000 7.125000 0.000000 0.000000 35.839937 24.472131 22.378852
0.040825 16.441683 -9.660388 -0.572538 -32.931798 27.483634 0.000000 0.000000 0.000000 -29.125146 -9.540189 -47.572828 4.148569 12.355495 37.001439 4.414872 13.684672 -45.790395 1.049264 6.513814 18.282809 0.000000 0.000000 0.000000 27.231530 -1.082928 -25.764277 -6.338698 -14.748711 46.326297 2.861346 -38.325529 13.800743 -1.919719 -8.696540 24.850627 -6.306172 2.203866 -16.703919 -0.440064 3.573236 -10.062735 3.595347 2.005133 -1.804696 3.305971 3.865772 -12.993783 1.732244 3.957103 33.702852 0.693012 2.298422 13.593052 0.000000 0.000000 0.000000 18.752168 19.151666 -74.854431 20.821115 -31.618932 5.955926 -26.665991 -30.331590 -18.167784 0.000000 0.000000 0.000000 -7.125000 0.000000 0.000000 -47.017466 42.803339 -3.408238 0.000000 0.000000 0.000000 -15.841027 24.233209 68.761854 -16.031983 -25.563777 -3.659860 24.685470 -29.620773 -3.228635 0.000000 0.000000 0.000000 7.125000 0.000000 0.000000 35.957197 24.966199 21.938341
0.047310 16.444150 -9.655101 -0.533353 -32.728751 27.223035 0.000000 0.000000 0.000000 -29.159345 -9.554189 -47.206280 4.142519 12.347698 36.973385 4.465721 13.413365 -45.843181 1.106862 6.683856 18.782362 0.000000 0.000000 0.000000 27.343832 -1.578167 -25.582266 -6.313963 -14.725837 46.229082 2.718671 -38.034424 14.210941 -1.777384 -8.385043 23.890471 -6.066576 2.186569 -16.389025 -0.463044 3.506587 -9.955264 3.416287 1.959642 -1.822266 3.289554 3.934129 -12.773045 1.790058 4.052501 33.553313 0.724447 2.346029 13.477830 0.000000 0.000000 0.000000 19.068325 18.924136 -76.010336 21.107256 -31.952933 6.106763 -26.700280 -31.004615 -18.545224 0.000000 0.000000 0.000000 -7.125000 0.000000 0.000000 -47.286745 43.094851 -2.977227 0.000000 0.000000 0.000000 -16.120589 24.283705 69.759142 -16.483991 -26.172201 -3.857198 24.464515 -30.001961 -3.292466 0.000000 0.000000 0.000000 7.125000 0.000000 0.000000 35.819399 24.940879 21.832388
0.047038 16.452187 -9.659423 -0.756935 -33.333177 27.717841 0.000000 0.000000 0.000000 -28.934490 -9.606145 -47.628839 4.114322 12.311018 36.841457 4.551698 13.525046 -46.248530 1.160146 6.837931 19.236142 0.000000 0.000000 0.000000 27.314062 -1.047930 -25.784209 -6.284177 -14.698175 46.111924 2.800535 -38.337843 14.151331 -1.848105 -8.540819 24.370064 -5.983879 2.416916 -16.700681 -0.565452 3.815878 -9.968556 3.319335 2.103487 -1.692414 3.268824 4.021959 -12.626555 2.028597 4.114812 33.355328 0.823093 2.403135 13.353737 0.000000 0.000000 0.000000 19.687584 18.609147 -77.856039 21.572089 -32.489587 6.354614 -26.027682 -31.386973 -18.664306 0.000000 0.000000 0.000000 -7.125000 0.000000 0.000000 -46.927113 43.288986 -2.633483 0.000000 0.000000 0.000000 -16.352442 24.216989 71.204591 -16.953258 -26.795718 -4.066530 23.887525 -30.577646 -3.644954 0.000000 0.000000 0.000000 7.125000 0.000000 0.000000 35.398715 24.708504 21.688188
0.054356 16.453973 -9.650338 -0.206470 -32.715521 27.011375 0.000000 0.000000 0.000000 -29.403837 -9.714444 -46.938315 4.095301 12.286241 36.752098 4.440727 13.607619 -45.851123 1.056602 6.535823 18.347331 0.000000 0.000000 0.000000 27.198709 -1.921651 -25.508629 -6.252685 -14.668763 45.987466 3.048981 -38.807975 13.403112 -1.953564 -8.768400 25.073792 -6.024757 2.144640 -16.175243 -0.676284 3.448132 -9.728943 3.158027 1.914016 -1.663354 3.351014 4.091782 -12.621030 2.085791 4.175977 33.201650 0.837004 2.447364 13.288230 0.000000 0.000000 0.000000 20.225145 18.414452 -79.373549 22.238181 -33.244675 6.716132 -25.471813 -31.820411 -18.946688 0.000000 0.000000 0.000000 -7.125000 0.000000 0.000000 -46.745488 43.592750 -2.144406 0.000000 0.000000 0.000000 -16.749892 24.048100 72.681131 -17.664809 -27.725064 -4.392588 23.765765 -31.330542 -2.951135 0.000000 0.000000 0.000000 7.125000 0.000000 0.000000 35.547683 25.340353 21.133307
0.052045 16.461362 -9.659438 -0.692986 -33.432956 27.789361 0.000000 0.000000 0.000000 -29.089993 -9.437155 -47.740277 4.097234 12.288649 36.760902 4.453052 13.704062 -45.953665 1.078498 6.600577 18.537473 0.000000 0.000000 0.000000 27.343798 -1.226021 -25.786237 -6.219917 -14.638121 45.858165 2.549637 -38.027506 15.132209 -1.628493 -8.021682 22.792964 -5.952289 2.343853 -16.495270 -0.621674 3.710121 -9.845559 3.222876 2.044046 -1.648184 3.399570 4.141893 -12.426704 2.025618 4.266055 32.985285 0.808314 2.484714 13.156962 0.000000 0.000000 0.000000 20.416546 18.360149 -79.752199 22.782739 -33.849753 7.017125 -25.772690 -31.675249 -19.297751 0.000000 0.000000 0.000000 -7.125000 0.000000 0.000000 -47.178610 43.822454 -1.818718 0.000000 0.000000 0.000000 -17.300225 24.021275 74.193543 -18.338066 -28.587025 -4.710322 23.739522 -31.613344 -2.673139 0.000000 0.000000 0.000000 7.125000 0.000000 0.000000 35.620686 25.590172 20.924364
0.047155 16.470250 -9.666896 -1.265264 -34.192378 28.565144 0.000000 0.000000 0.000000 -28.595536 -9.318669 -48.471912 4.114864 12.311716 36.843748 4.562685 13.758405 -46.420209 1.138147 6.775048 19.050676 0.000000 0.000000 0.000000 27.522907 -0.599396 -26.017179 -6.179669 -14.600275 45.698764 1.635653 -36.322854 18.050010 -0.997109 -6.340927 17.781633 -5.889031 2.593827 -16.763794 -0.540362 4.036944 -9.965934 3.326039 2.209676 -1.673244 3.319311 4.213426 -12.311845 2.131495 4.363995 32.828235 0.870837 2.532101 13.059773 0.000000 0.000000 0.000000 20.881710 18.218352 -81.036675 23.426864 -34.551820 7.379169 -25.873176 -31.566412 -19.343757 0.000000 0.000000 0.000000 -7.125000 0.000000 0.000000 -47.276644 43.843427 -1.792206 0.000000 0.000000 0.000000 -17.813661 24.068442 75.526333 -18.979344 -29.392636 -5.020919 23.809857 -31.567773 -2.729092 0.000000 0.000000 0.000000 7.125000 0.000000 0.000000 35.641517 25.531146 21.008956
0.047596 16.474947 -9.667248 -1.537526 -34.398033 28.684757 0.000000 0.000000 0.000000 -28.303708 -9.331783 -48.445161 4.113140 12.309443 36.835646 4.645924 13.670470 -46.700131 1.188412 6.917623 19.471619 0.000000 0.000000 0.000000 27.693430 -0.503809 -25.808112 -6.144923 -14.567309 45.560720 1.837963 -36.550681 17.222366 -1.137523 -6.758931 19.008743 -5.733973 2.686741 -16.456639 -0.561405 4.122664 -9.940479 3.211538 2.249135 -1.797710 3.428440 4.328471 -12.502616 2.254041 4.453907 32.868733 0.919561 2.600811 13.120041 0.000000 0.000000 0.000000 21.658267 17.980068 -82.861925 24.242233 -35.418131 7.846972 -25.472203 -31.915162 -19.440837 0.000000 0.000000 0.000000 -7.125000 0.000000 0.000000 -47.073756 43.978955 -1.568664 0.000000 0.000000 0.000000 -18.172102 24.037858 76.854759 -19.672221 -30.244766 -5.365520 23.635544 -31.814656 -2.734084 0.000000 0.000000 0.000000 7.125000 0.000000 0.000000 35.544382 25.550030 20.898961
